<svg xmlns:dc="http://purl.org/dc/elements/1.1/" xmlns:cc="http://creativecommons.org/ns#" xmlns:rdf="http://www.w3.org/1999/02/22-rdf-syntax-ns#" xmlns:svg="http://www.w3.org/2000/svg" xmlns="http://www.w3.org/2000/svg" xmlns:sodipodi="http://sodipodi.sourceforge.net/DTD/sodipodi-0.dtd" xmlns:inkscape="http://www.inkscape.org/namespaces/inkscape" viewBox="0 0 24 30" version="1.1" x="0px" y="0px"><g transform="translate(0,-1028.3622)"><path style="" d="M 5.0722656 0 C 2.2623758 0 0 2.2623758 0 5.0722656 L 0 18.927734 C 0 21.737624 2.2623758 24 5.0722656 24 L 18.927734 24 C 21.737624 24 24 21.737624 24 18.927734 L 24 5.0722656 C 24 2.2623758 21.737624 0 18.927734 0 L 5.0722656 0 z M 5 6 L 19 6 L 19 16 L 14.007812 16 L 10 16 L 5 16 L 5 6 z M 7 7 C 6.454648 7 6 7.4547 6 8 L 6 14 C 6 14.5454 6.454648 15 7 15 L 17 15 C 17.545352 15 18 14.5454 18 14 L 18 8 C 18 7.4547 17.545352 7 17 7 L 7 7 z M 7 8 L 17 8 L 17 14 L 7 14 L 7 8 z M 8 9 L 8 9.5 L 8 13 L 11 13 L 11 9 L 8 9 z M 12.5 9 L 12.5 11.5 L 14.5 11.5 L 14.5 12.009766 L 12.5 12.009766 L 12.5 13.009766 L 15.5 13.009766 L 15.5 10.5 L 13.5 10.5 L 13.5 10 L 15.5 10 L 15.5 9 L 12.5 9 z M 9 10 L 10 10 L 10 12 L 9 12 L 9 10 z M 10 17 L 11 17 L 11 19 L 13.007812 19 L 13.007812 17 L 14.007812 17 L 14.007812 19 L 16 19 L 16 20 L 8 20 L 8 19 L 10 19 L 10 17 z " transform="translate(0,1028.3622)" fill="#000000" fill-opacity="1" stroke="none"/></g><text x="0" y="39" fill="#000000" font-size="5px" font-weight="bold" font-family="'Helvetica Neue', Helvetica, Arial-Unicode, Arial, Sans-serif">Created by Chameleon Design</text><text x="0" y="44" fill="#000000" font-size="5px" font-weight="bold" font-family="'Helvetica Neue', Helvetica, Arial-Unicode, Arial, Sans-serif">from the Noun Project</text></svg>